<svg xmlns="http://www.w3.org/2000/svg" viewBox="0 0 18 14">
    <path  d="M17.759,14H.241a.235.235,0,0,1-.161-.079A.223.223,0,0,1,0,13.764v-.943a.223.223,0,0,1,.08-.158.234.234,0,0,1,.161-.078H17.759a.234.234,0,0,1,.161.078.223.223,0,0,1,.08.158v.943a.223.223,0,0,1-.08.157A.235.235,0,0,1,17.759,14Zm0-6.293H.241A.234.234,0,0,1,.08,7.629.226.226,0,0,1,0,7.472V6.528a.226.226,0,0,1,.08-.157.232.232,0,0,1,.161-.079H17.759a.232.232,0,0,1,.161.079.226.226,0,0,1,.08.157v.944a.226.226,0,0,1-.08.157A.234.234,0,0,1,17.759,7.708Zm0-6.292H.241A.234.234,0,0,1,.08,1.337.227.227,0,0,1,0,1.18V.236A.227.227,0,0,1,.08.078.234.234,0,0,1,.241,0H17.759a.234.234,0,0,1,.161.078A.227.227,0,0,1,18,.236V1.18a.227.227,0,0,1-.08.158A.234.234,0,0,1,17.759,1.416Z"  fill="white"/>
</svg>
